<?xml version="1.0" encoding="UTF-8" standalone="no"?>
<svg width="48px" height="16px" viewBox="0 0 48 16" version="1.1" xmlns="http://www.w3.org/2000/svg" xmlns:xlink="http://www.w3.org/1999/xlink">
    <!-- Generator: Sketch 39.1 (31720) - http://www.bohemiancoding.com/sketch -->
    <title>toolbar</title>
    <desc>Created with Sketch.</desc>
    <defs>
        <rect id="path-1" x="0" y="0" width="16" height="16"></rect>
        <mask id="mask-2" maskContentUnits="userSpaceOnUse" maskUnits="objectBoundingBox" x="0" y="0" width="16" height="16" fill="white">
            <use xlink:href="#path-1"></use>
        </mask>
    </defs>
    <g id="common" stroke="none" stroke-width="1" fill="none" fill-rule="evenodd">
        <g id="代码按钮" transform="translate(-535.000000, -161.000000)">
            <g id="toolbar" transform="translate(535.000000, 161.000000)">
                <g id="toolbar/add-note" transform="translate(32.000000, 0.000000)">
                    <g id="add-to-note-copy-2">
                        <rect id="Rectangle-5-Copy-6" fill="#000000" opacity="0" x="0" y="0" width="16" height="16"></rect>
                        <path d="M8,8 L6,8 L6,9 L8,9 L8,11 L9,11 L9,9 L11,9 L11,8 L9,8 L9,6 L8,6 L8,8 Z M15,5 L15,14 L3,14 L3,0 L11,0 L11,5 L15,5 Z M1,2 L2,2 L2,16 L1,16 L1,2 Z M2,15 L13,15 L13,16 L2,16 L2,15 Z M12,4 L15,4 L12,0 L12,4 Z" id="Combined-Shape" fill="#FFFFFF"></path>
                    </g>
                </g>
                <g id="toolbar/copy" transform="translate(16.000000, 0.000000)">
                    <g id="copy-copy-2">
                        <rect id="Rectangle-5-Copy-5" fill="#000000" opacity="0" x="0" y="0" width="16" height="16"></rect>
                        <g id="Group" transform="translate(1.000000, 0.000000)" fill="#FFFFFF">
                            <path d="M11,2 L11,0 L0,0 L0,14 L2,14 L2,13 L1,13 L1,1 L10,1 L10,2 L11,2 Z M3,3 L14,3 L14,16 L3,16 L3,3 Z M5,6 L12,6 L12,7 L5,7 L5,6 Z M5,8 L11,8 L11,9 L5,9 L5,8 Z M5,12 L10,12 L10,13 L5,13 L5,12 Z M5,10 L11,10 L11,11 L5,11 L5,10 Z" id="Combined-Shape"></path>
                        </g>
                    </g>
                </g>
                <g id="toolbar/select-all">
                    <g id="select-all-copy-2">
                        <rect id="Rectangle-5-Copy-2" fill="#000000" opacity="0" x="0" y="0" width="16" height="16"></rect>
                        <g id="Group-2">
                            <use id="Rectangle-37" stroke="#FFFFFF" mask="url(#mask-2)" stroke-width="2" stroke-dasharray="1" xlink:href="#path-1"></use>
                            <path d="M3,3 L7,3 L7,7 L3,7 L3,3 Z M9,3 L13,3 L13,7 L9,7 L9,3 Z M3,9 L7,9 L7,13 L3,13 L3,9 Z M9,9 L13,9 L13,13 L9,13 L9,9 Z" id="Combined-Shape" fill="#FFFFFF"></path>
                        </g>
                    </g>
                </g>
            </g>
        </g>
    </g>
</svg>