<?xml version="1.0" encoding="UTF-8" standalone="no"?>
<svg width="180px" height="54px" viewBox="0 0 180 54" version="1.1" xmlns="http://www.w3.org/2000/svg" xmlns:xlink="http://www.w3.org/1999/xlink">
    <!-- Generator: Sketch 3.8.3 (29802) - http://www.bohemiancoding.com/sketch -->
    <title>vote-bg</title>
    <desc>Created with Sketch.</desc>
    <defs></defs>
    <g id="UI-Kit" stroke="none" stroke-width="1" fill="none" fill-rule="evenodd">
        <g id="vote-bg">
            <path d="M23.7773438,9.86458333 L18.5273438,5.19791667 C18.3867188,5.07291667 18.1992188,5 18,5 C17.8007812,5 17.6132812,5.07291667 17.4726562,5.19791667 L12.2226562,9.86458333 C12.0820312,9.98958333 12,10.15625 12,10.3333333 C12,10.6979167 12.3398438,11 12.75,11 L23.25,11 C23.6601562,11 24,10.6979167 24,10.3333333 C24,10.15625 23.9179688,9.98958333 23.7773438,9.86458333 Z" id="caret-up---FontAwesome" fill="#666666"></path>
            <path d="M23.7773438,47.8645833 L18.5273438,43.1979167 C18.3867188,43.0729167 18.1992188,43 18,43 C17.8007812,43 17.6132812,43.0729167 17.4726562,43.1979167 L12.2226562,47.8645833 C12.0820312,47.9895833 12,48.15625 12,48.3333333 C12,48.6979167 12.3398438,49 12.75,49 L23.25,49 C23.6601562,49 24,48.6979167 24,48.3333333 C24,48.15625 23.9179688,47.9895833 23.7773438,47.8645833 Z" id="caret-up---FontAwesome-Copy" fill="#666666" transform="translate(18.000000, 46.000000) scale(1, -1) translate(-18.000000, -46.000000) "></path>
            <path d="M59.7773438,9.86458333 L54.5273438,5.19791667 C54.3867188,5.07291667 54.1992188,5 54,5 C53.8007812,5 53.6132812,5.07291667 53.4726562,5.19791667 L48.2226562,9.86458333 C48.0820312,9.98958333 48,10.15625 48,10.3333333 C48,10.6979167 48.3398438,11 48.75,11 L59.25,11 C59.6601562,11 60,10.6979167 60,10.3333333 C60,10.15625 59.9179688,9.98958333 59.7773438,9.86458333 Z" id="caret-up---FontAwesome-Copy-3" fill="#F5A623"></path>
            <path d="M59.7773438,47.8645833 L54.5273438,43.1979167 C54.3867188,43.0729167 54.1992188,43 54,43 C53.8007812,43 53.6132812,43.0729167 53.4726562,43.1979167 L48.2226562,47.8645833 C48.0820312,47.9895833 48,48.15625 48,48.3333333 C48,48.6979167 48.3398438,49 48.75,49 L59.25,49 C59.6601562,49 60,48.6979167 60,48.3333333 C60,48.15625 59.9179688,47.9895833 59.7773438,47.8645833 Z" id="caret-up---FontAwesome-Copy-2" fill="#F5A623" transform="translate(54.000000, 46.000000) scale(1, -1) translate(-54.000000, -46.000000) "></path>
            <path d="M95.7773438,9.86458333 L90.5273438,5.19791667 C90.3867188,5.07291667 90.1992188,5 90,5 C89.8007812,5 89.6132812,5.07291667 89.4726562,5.19791667 L84.2226562,9.86458333 C84.0820312,9.98958333 84,10.15625 84,10.3333333 C84,10.6979167 84.3398438,11 84.75,11 L95.25,11 C95.6601562,11 96,10.6979167 96,10.3333333 C96,10.15625 95.9179688,9.98958333 95.7773438,9.86458333 Z" id="caret-up---FontAwesome-Copy-5" fill="#009A61"></path>
            <path d="M135.777344,7.86458333 L130.527344,3.19791667 C130.386719,3.07291667 130.199219,3 130,3 C129.800781,3 129.613281,3.07291667 129.472656,3.19791667 L124.222656,7.86458333 C124.082031,7.98958333 124,8.15625 124,8.33333333 C124,8.69791667 124.339844,9 124.75,9 L135.25,9 C135.660156,9 136,8.69791667 136,8.33333333 C136,8.15625 135.917969,7.98958333 135.777344,7.86458333 Z" id="caret-up---FontAwesome-Copy-8" fill="#666666"></path>
            <path d="M155.777344,7.86458333 L150.527344,3.19791667 C150.386719,3.07291667 150.199219,3 150,3 C149.800781,3 149.613281,3.07291667 149.472656,3.19791667 L144.222656,7.86458333 C144.082031,7.98958333 144,8.15625 144,8.33333333 C144,8.69791667 144.339844,9 144.75,9 L155.25,9 C155.660156,9 156,8.69791667 156,8.33333333 C156,8.15625 155.917969,7.98958333 155.777344,7.86458333 Z" id="caret-up---FontAwesome-Copy-7" fill="#F5A623"></path>
            <path d="M95.7773438,47.8645833 L90.5273438,43.1979167 C90.3867188,43.0729167 90.1992188,43 90,43 C89.8007812,43 89.6132812,43.0729167 89.4726562,43.1979167 L84.2226562,47.8645833 C84.0820312,47.9895833 84,48.15625 84,48.3333333 C84,48.6979167 84.3398438,49 84.75,49 L95.25,49 C95.6601562,49 96,48.6979167 96,48.3333333 C96,48.15625 95.9179688,47.9895833 95.7773438,47.8645833 Z" id="caret-up---FontAwesome-Copy-4" fill="#AD3A37" transform="translate(90.000000, 46.000000) scale(1, -1) translate(-90.000000, -46.000000) "></path>
            <path d="M175.777344,7.86458333 L170.527344,3.19791667 C170.386719,3.07291667 170.199219,3 170,3 C169.800781,3 169.613281,3.07291667 169.472656,3.19791667 L164.222656,7.86458333 C164.082031,7.98958333 164,8.15625 164,8.33333333 C164,8.69791667 164.339844,9 164.75,9 L175.25,9 C175.660156,9 176,8.69791667 176,8.33333333 C176,8.15625 175.917969,7.98958333 175.777344,7.86458333 Z" id="caret-up---FontAwesome-Copy-6" fill="#009A61"></path>
        </g>
    </g>
</svg>